<svg height="1966" width="720" xmlns="http://www.w3.org/2000/svg">
<rect height="1966" fill="#555" width="720"></rect>
<text fill="#7f7" font-family="Courier New" font-size="12" xml:space="preserve">
<tspan x="10" y="26">30 megabytes installed</tspan>
<tspan x="10" y="42"></tspan>
<tspan x="10" y="58">node_modules</tspan>
<tspan x="10" y="74">└─┬ gulp-bless@3.2.1 </tspan>
<tspan x="10" y="90">  ├─┬ bless@4.0.4 </tspan>
<tspan x="10" y="106">  │ ├─┬ babel-runtime@6.23.0 </tspan>
<tspan x="10" y="122">  │ │ ├── core-js@2.4.1 </tspan>
<tspan x="10" y="138">  │ │ └── regenerator-runtime@0.10.3 </tspan>
<tspan x="10" y="154">  │ ├─┬ chalk@1.1.3 </tspan>
<tspan x="10" y="170">  │ │ ├── ansi-styles@2.2.1 </tspan>
<tspan x="10" y="186">  │ │ ├── escape-string-regexp@1.0.5 </tspan>
<tspan x="10" y="202">  │ │ ├─┬ has-ansi@2.0.0 </tspan>
<tspan x="10" y="218">  │ │ │ └── ansi-regex@2.1.1 </tspan>
<tspan x="10" y="234">  │ │ ├── strip-ansi@3.0.1 </tspan>
<tspan x="10" y="250">  │ │ └── supports-color@2.0.0 </tspan>
<tspan x="10" y="266">  │ ├─┬ columnify@1.5.4 </tspan>
<tspan x="10" y="282">  │ │ └─┬ wcwidth@1.0.1 </tspan>
<tspan x="10" y="298">  │ │   └── defaults@1.0.3 </tspan>
<tspan x="10" y="314">  │ ├─┬ css@2.2.1 </tspan>
<tspan x="10" y="330">  │ │ ├── inherits@2.0.3 </tspan>
<tspan x="10" y="346">  │ │ ├─┬ source-map@0.1.43 </tspan>
<tspan x="10" y="362">  │ │ │ └── amdefine@1.0.1 </tspan>
<tspan x="10" y="378">  │ │ ├─┬ source-map-resolve@0.3.1 </tspan>
<tspan x="10" y="394">  │ │ │ ├── atob@1.1.3 </tspan>
<tspan x="10" y="410">  │ │ │ ├── resolve-url@0.2.1 </tspan>
<tspan x="10" y="426">  │ │ │ └── source-map-url@0.3.0 </tspan>
<tspan x="10" y="442">  │ │ └── urix@0.1.0 </tspan>
<tspan x="10" y="458">  │ ├── format-number@2.0.2 </tspan>
<tspan x="10" y="474">  │ ├─┬ fs-promise@0.5.0 </tspan>
<tspan x="10" y="490">  │ │ ├── any-promise@1.3.0 </tspan>
<tspan x="10" y="506">  │ │ ├─┬ fs-extra@0.26.7 </tspan>
<tspan x="10" y="522">  │ │ │ ├── graceful-fs@4.1.11 </tspan>
<tspan x="10" y="538">  │ │ │ ├── jsonfile@2.4.0 </tspan>
<tspan x="10" y="554">  │ │ │ ├── klaw@1.3.1 </tspan>
<tspan x="10" y="570">  │ │ │ ├── path-is-absolute@1.0.1 </tspan>
<tspan x="10" y="586">  │ │ │ └─┬ rimraf@2.6.1 </tspan>
<tspan x="10" y="602">  │ │ │   └─┬ glob@7.1.1 </tspan>
<tspan x="10" y="618">  │ │ │     ├── fs.realpath@1.0.0 </tspan>
<tspan x="10" y="634">  │ │ │     ├─┬ inflight@1.0.6 </tspan>
<tspan x="10" y="650">  │ │ │     │ └── wrappy@1.0.2 </tspan>
<tspan x="10" y="666">  │ │ │     ├─┬ minimatch@3.0.3 </tspan>
<tspan x="10" y="682">  │ │ │     │ └─┬ brace-expansion@1.1.7 </tspan>
<tspan x="10" y="698">  │ │ │     │   ├── balanced-match@0.4.2 </tspan>
<tspan x="10" y="714">  │ │ │     │   └── concat-map@0.0.1 </tspan>
<tspan x="10" y="730">  │ │ │     └── once@1.4.0 </tspan>
<tspan x="10" y="746">  │ │ ├─┬ mz@2.6.0 </tspan>
<tspan x="10" y="762">  │ │ │ └── object-assign@4.1.1 </tspan>
<tspan x="10" y="778">  │ │ └─┬ thenify-all@1.6.0 </tspan>
<tspan x="10" y="794">  │ │   └── thenify@3.2.1 </tspan>
<tspan x="10" y="810">  │ ├── lodash@4.17.4 </tspan>
<tspan x="10" y="826">  │ ├── rx@4.1.0 </tspan>
<tspan x="10" y="842">  │ └─┬ yargs@3.32.0 </tspan>
<tspan x="10" y="858">  │   ├── camelcase@2.1.1 </tspan>
<tspan x="10" y="874">  │   ├─┬ cliui@3.2.0 </tspan>
<tspan x="10" y="890">  │   │ └── wrap-ansi@2.1.0 </tspan>
<tspan x="10" y="906">  │   ├── decamelize@1.2.0 </tspan>
<tspan x="10" y="922">  │   ├─┬ os-locale@1.4.0 </tspan>
<tspan x="10" y="938">  │   │ └─┬ lcid@1.0.0 </tspan>
<tspan x="10" y="954">  │   │   └── invert-kv@1.0.0 </tspan>
<tspan x="10" y="970">  │   ├─┬ string-width@1.0.2 </tspan>
<tspan x="10" y="986">  │   │ ├── code-point-at@1.1.0 </tspan>
<tspan x="10" y="1002">  │   │ └─┬ is-fullwidth-code-point@1.0.0 </tspan>
<tspan x="10" y="1018">  │   │   └── number-is-nan@1.0.1 </tspan>
<tspan x="10" y="1034">  │   ├── window-size@0.1.4 </tspan>
<tspan x="10" y="1050">  │   └── y18n@3.2.1 </tspan>
<tspan x="10" y="1066">  ├─┬ gulp-util@3.0.8 </tspan>
<tspan x="10" y="1082">  │ ├── array-differ@1.0.0 </tspan>
<tspan x="10" y="1098">  │ ├── array-uniq@1.0.3 </tspan>
<tspan x="10" y="1114">  │ ├── beeper@1.1.1 </tspan>
<tspan x="10" y="1130">  │ ├── dateformat@2.0.0 </tspan>
<tspan x="10" y="1146">  │ ├─┬ fancy-log@1.3.0 </tspan>
<tspan x="10" y="1162">  │ │ └── time-stamp@1.0.1 </tspan>
<tspan x="10" y="1178">  │ ├─┬ gulplog@1.0.0 </tspan>
<tspan x="10" y="1194">  │ │ └── glogg@1.0.0 </tspan>
<tspan x="10" y="1210">  │ ├─┬ has-gulplog@0.1.0 </tspan>
<tspan x="10" y="1226">  │ │ └── sparkles@1.0.0 </tspan>
<tspan x="10" y="1242">  │ ├── lodash._reescape@3.0.0 </tspan>
<tspan x="10" y="1258">  │ ├── lodash._reevaluate@3.0.0 </tspan>
<tspan x="10" y="1274">  │ ├── lodash._reinterpolate@3.0.0 </tspan>
<tspan x="10" y="1290">  │ ├─┬ lodash.template@3.6.2 </tspan>
<tspan x="10" y="1306">  │ │ ├── lodash._basecopy@3.0.1 </tspan>
<tspan x="10" y="1322">  │ │ ├── lodash._basetostring@3.0.1 </tspan>
<tspan x="10" y="1338">  │ │ ├── lodash._basevalues@3.0.0 </tspan>
<tspan x="10" y="1354">  │ │ ├── lodash._isiterateecall@3.0.9 </tspan>
<tspan x="10" y="1370">  │ │ ├─┬ lodash.escape@3.2.0 </tspan>
<tspan x="10" y="1386">  │ │ │ └── lodash._root@3.0.1 </tspan>
<tspan x="10" y="1402">  │ │ ├─┬ lodash.keys@3.1.2 </tspan>
<tspan x="10" y="1418">  │ │ │ ├── lodash._getnative@3.9.1 </tspan>
<tspan x="10" y="1434">  │ │ │ ├── lodash.isarguments@3.1.0 </tspan>
<tspan x="10" y="1450">  │ │ │ └── lodash.isarray@3.0.4 </tspan>
<tspan x="10" y="1466">  │ │ ├── lodash.restparam@3.6.1 </tspan>
<tspan x="10" y="1482">  │ │ └── lodash.templatesettings@3.1.1 </tspan>
<tspan x="10" y="1498">  │ ├── minimist@1.2.0 </tspan>
<tspan x="10" y="1514">  │ ├─┬ multipipe@0.1.2 </tspan>
<tspan x="10" y="1530">  │ │ └─┬ duplexer2@0.0.2 </tspan>
<tspan x="10" y="1546">  │ │   └── readable-stream@1.1.14 </tspan>
<tspan x="10" y="1562">  │ ├── object-assign@3.0.0 </tspan>
<tspan x="10" y="1578">  │ ├── replace-ext@0.0.1 </tspan>
<tspan x="10" y="1594">  │ ├─┬ through2@2.0.3 </tspan>
<tspan x="10" y="1610">  │ │ ├─┬ readable-stream@2.2.9 </tspan>
<tspan x="10" y="1626">  │ │ │ ├── buffer-shims@1.0.0 </tspan>
<tspan x="10" y="1642">  │ │ │ ├── isarray@1.0.0 </tspan>
<tspan x="10" y="1658">  │ │ │ ├── process-nextick-args@1.0.7 </tspan>
<tspan x="10" y="1674">  │ │ │ ├── string_decoder@1.0.0 </tspan>
<tspan x="10" y="1690">  │ │ │ └── util-deprecate@1.0.2 </tspan>
<tspan x="10" y="1706">  │ │ └── xtend@4.0.1 </tspan>
<tspan x="10" y="1722">  │ └─┬ vinyl@0.5.3 </tspan>
<tspan x="10" y="1738">  │   ├── clone@1.0.2 </tspan>
<tspan x="10" y="1754">  │   └── clone-stats@0.0.1 </tspan>
<tspan x="10" y="1770">  ├── lodash.isfunction@3.0.8 </tspan>
<tspan x="10" y="1786">  ├── lodash.isstring@4.0.1 </tspan>
<tspan x="10" y="1802">  ├── lodash.isundefined@3.0.1 </tspan>
<tspan x="10" y="1818">  ├── merge@1.2.0 </tspan>
<tspan x="10" y="1834">  ├─┬ through2@0.5.1 </tspan>
<tspan x="10" y="1850">  │ ├─┬ readable-stream@1.0.34 </tspan>
<tspan x="10" y="1866">  │ │ ├── core-util-is@1.0.2 </tspan>
<tspan x="10" y="1882">  │ │ ├── isarray@0.0.1 </tspan>
<tspan x="10" y="1898">  │ │ └── string_decoder@0.10.31 </tspan>
<tspan x="10" y="1914">  │ └── xtend@3.0.0 </tspan>
<tspan x="10" y="1930">  └─┬ vinyl-sourcemaps-apply@0.2.1 </tspan>
<tspan x="10" y="1946">    └── source-map@0.5.6</tspan>
</text>
</svg>
